{"title":"Return.Of.The.Killer.Shrews.2012.DVDRiP.XViD.AC3 - BiTo","uid":8893665,"size":1202170065,"categoryP":"video","categoryS":"movies","magnet":"?xt=urn:btih:f796faa94211c163c89ae9f3839927e1ec51fee3&amp;dn=Return.Of.The.Killer.Shrews.2012.DVDRiP.XViD.AC3+-+BiTo&amp;tr=udp%3A%2F%2Ftracker.openbittorrent.com%3A80&amp;tr=udp%3A%2F%2Fopen.demonii.com%3A1337&amp;tr=udp%3A%2F%2Ftracker.coppersurfer.tk%3A6969&amp;tr=udp%3A%2F%2Fexodus.desync.com%3A6969","seeders":0,"leechers":2,"uploader":"xxxlavalxxx","files":-1,"time":1378646223,"description":" &lt;a href=&quot;\nhttp://www.imdb.com/title/tt1832447/&quot; rel=&quot;nofollow&quot; target=&quot;_NEW&quot;&gt;\nhttp://www.imdb.com/title/tt1832447/&lt;/a&gt;\n\n\n\nThe '59 film, The Killer Shrews, found a group of folks on an island with the ravenous beasts. This time James Best's ship captain is hired by a reality crew to return to the island and...you guessed it, the shrews attack again. \n\n\n\nDirector:\n Steve Latshaw \n\nWriters:\n James Best, Steve Latshaw\n\nStars:\n John Schneider, Bruce Davison, Jennifer Lyons\n\nGenres:\n  Horror \n\nCountry:\n USA \n\nLanguage:\n English \n\n\n\nSource: DVD\n Audio: Eng @ 6CH\n Subs: ENG SRT\n Codec: XvID\n Container: AVI\n Sample : YES\n\n Video\n ID                                       : 0\n Format                                   : MPEG-4 Visual\n Format profile                           : Advanced Simple@L5\n Format settings, BVOP                    : 2\n Format settings, QPel                    : No\n Format settings, GMC                     : No warppoints\n Format settings, Matrix                  : Default (H.263)\n Muxing mode                              : Packed bitstream\n Codec ID                                 : XVID\n Codec ID/Hint                            : XviD\n Duration                                 : 1h 23mn\n Bit rate                                 : 1 495 Kbps\n Width                                    : 704 pixels\n Height                                   : 384 pixels\n Display aspect ratio                     : 1.85:1\n Frame rate                               : 23.976 fps\n Color space                              : YUV\n Chroma subsampling                       : 4:2:0\n Bit depth                                : 8 bits\n Scan type                                : Progressive\n Compression mode                         : Lossy\n Bits/(Pixel*Frame)                       : 0.231\n Stream size                              : 897 MiB (79%)\n Writing library                          : XviD 64\n\n Audio\n ID                                       : 1\n Format                                   : AC-3\n Format/Info                              : Audio Coding 3\n Mode extension                           : CM (complete main)\n Format settings, Endianness              : Big\n Codec ID                                 : 2000\n Duration                                 : 1h 23mn\n Bit rate mode                            : Constant\n Bit rate                                 : 384 Kbps\n Channel(s)                               : 6 channels\n Channel positions                        : Front: L C R, Side: L R, LFE\n Sampling rate                            : 48.0 KHz\n Bit depth                                : 16 bits\n Compression mode                         : Lossy\n Stream size                              : 230 MiB (20%)\n Alignment                                : Aligned on interleaves\n Interleave, duration                     : 64 ms (1.53 video frames)\n Interleave, preload duration             : 192 ms\n Title                                    : VTS_07_1 T81 3_2ch 384Kbps DELAY 0ms\n\n\n &lt;a href=&quot;\nhttp://bayimg.com/eaPpPAaEG&quot; rel=&quot;nofollow&quot; target=&quot;_NEW&quot;&gt;\nhttp://bayimg.com/eaPpPAaEG&lt;/a&gt; &lt;a href=&quot;\nhttp://bayimg.com/FAPPAAaeg&quot; rel=&quot;nofollow&quot; target=&quot;_NEW&quot;&gt;\nhttp://bayimg.com/FAPPAAaeg&lt;/a&gt;\n","torrent":{"xt":"urn:btih:f796faa94211c163c89ae9f3839927e1ec51fee3","amp;dn":"Return.Of.The.Killer.Shrews.2012.DVDRiP.XViD.AC3+-+BiTo","amp;tr":["udp%3A%2F%2Ftracker.openbittorrent.com%3A80","udp%3A%2F%2Fopen.demonii.com%3A1337","udp%3A%2F%2Ftracker.coppersurfer.tk%3A6969","udp%3A%2F%2Fexodus.desync.com%3A6969"],"infoHash":"f796faa94211c163c89ae9f3839927e1ec51fee3","infoHashBuffer":{"type":"Buffer","data":[247,150,250,169,66,17,193,99,200,154,233,243,131,153,39,225,236,81,254,227]},"announce":[],"urlList":[]}}